<?xml version="1.0" encoding="utf-8"?>
<!-- Generator: Adobe Illustrator 28.0.0, SVG Export Plug-In . SVG Version: 6.00 Build 0)  -->
<svg version="1.1" id="Capa_1" xmlns="http://www.w3.org/2000/svg" xmlns:xlink="http://www.w3.org/1999/xlink" x="0px" y="0px"
	 viewBox="0 0 1080 1080" style="enable-background:new 0 0 1080 1080;" xml:space="preserve">
<style type="text/css">
	.st0{fill:#C1D72D;}
	.st1{fill:#015289;}
</style>
<g>
	<g>
		<path class="st0" d="M949.2,248c18,200.6-243.9,370.5-395.5,463.2c-6.1,3.6-11.6,3.6-17.7,0c-71.2-41.8-139-88.3-202.4-141.1
			c-78.3-68.4-161.4-145.7-189.7-249.1C113,186.7,208,52.9,347.4,46.6c74-5.4,146,28,191,86.5c6.2,7.7,6.4,7.6,12.6,0.1
			c39.7-50.6,99.7-84,164.5-86.6C830.3,37.6,945.5,131.3,949.2,248z"/>
	</g>
	<polygon class="st1" points="731.5,540.7 671.9,473.5 842.8,373.2 545.9,531.8 541.8,316.1 538.5,491.8 418.1,392.3 418.2,392.3 
		421.1,296.7 415.6,390.3 277.6,276.3 449.4,424.1 381,488.3 451.4,425.9 538.3,500.6 528,1042.6 555.6,1042.6 546.2,547.3 
		669.6,474.8 	"/>
</g>
</svg>
